PathFileType	4	(X/Y/Z)	14_coords_data.trc
DataRate	CameraRate	NumFrames	NumMarkers	Units	OrigDataRate	OrigDataStartFrame	OrigNumFrames
30.0	30.0	7	21	m	30.0	22	64
Frame#	Time	THUMB_TIP	THUMB_IP	THUMB_MCP	THUMB_CMC	INDEX_TIP	INDEX_DIP	INDEX_PIP	INDEX_MCP	MIDDLE_TIP	MIDDLE_DIP	MIDDLE_PIP	MIDDLE_MCP	RING_TIP	RING_DIP	RING_PIP	RING_MCP	PINKY_TIP	PINKY_DIP	PINKY_PIP	PINKY_MCP	WRIST
X1	Y1	Z1	X2	Y2	Z2	X3	Y3	Z3	X4	Y4	Z4	X5	Y5	Z5	X6	Y6	Z6	X7	Y7	Z7	X8	Y8	Z8	X9	Y9	Z9	X10	Y10	Z10	X11	Y11	Z11	X12	Y12	Z12	X13	Y13	Z13	X14	Y14	Z14	X15	Y15	Z15	X16	Y16	Z16	X17	Y17	Z17	X18	Y18	Z18	X19	Y19	Z19	X20	Y20	Z20	X21	Y21	Z21
21	0.7	0.0338827018737793	0.010772899627685547	0.9647589721679688	0.022778499603271486	-0.0005258439779281611	0.9849849853515625	0.0025695900917053222	-0.003390840053558349	1.0080700073242188	-0.013935799598693848	0.017415800094604493	1.020530029296875	0.02664299964904785	-0.03626940155029297	0.9184359741210938	0.00722557020187378	-0.03256179809570312	0.9245440063476562	-0.010994000434875488	-0.027295799255371095	0.9360819702148437	-0.023526800155639647	-0.014621800422668457	0.9672639770507813	0.001884899973869323	-0.002841330051422119	0.9831790161132813	0.015406399726867677	-0.002947020053863525	0.9686170043945312	0.01098579978942871	-0.003011199951171875	0.9424169921875	-0.02565489959716797	0.005932929992675781	0.9556170043945312	0.008647769927978515	0.01447029972076416	0.9913419799804688	0.016690000534057618	0.015850299835205077	0.9766719970703125	0.01691659927368164	0.019686500549316407	0.9533619995117187	-0.019805700302124023	0.027845699310302733	0.9575859985351562	0.028926700592041017	0.048425201416015626	0.916156982421875	0.017968000411987303	0.04669060134887695	0.9319600219726563	0.008098739624023438	0.04425350189208985	0.9467979736328125	-0.005374820232391358	0.04106520080566406	0.9694459838867188	-0.04022869873046875	0.03567910003662109	1.0298399658203126
22	0.7333333333333333	0.03405070114135742	0.01108049964904785	0.9647630004882812	0.022796100616455078	-0.00033729401230812	0.9848099975585938	0.0022602999210357662	-0.003125989913940429	1.0079400024414062	-0.014115500450134277	0.01756010055541992	1.020510009765625	0.0240049991607666	-0.03695009994506836	0.913322998046875	0.00558400011062622	-0.03266790008544922	0.92235400390625	-0.011237099647521972	-0.027123300552368165	0.9358179931640624	-0.023372699737548828	-0.014309399604797364	0.96731298828125	0.001602689981460571	-0.002379739999771118	0.9835399780273437	0.01518910026550293	-0.002606679916381836	0.9687670288085938	0.011086700439453125	-0.002799760103225708	0.9425070190429687	-0.025841100692749024	0.006275219917297363	0.9557059936523438	0.008584500312805176	0.014750300407409668	0.991833984375	0.016637199401855467	0.016249399185180664	0.9767999877929687	0.016873600006103516	0.020045299530029297	0.9533099975585938	-0.019733400344848634	0.02801729965209961	0.9573709716796875	0.02854439926147461	0.049039398193359375	0.9160479736328125	0.017665800094604493	0.04714640045166016	0.931843017578125	0.00799541997909546	0.044637798309326175	0.9467509765625	-0.005496950149536133	0.04127730178833008	0.9692670288085937	-0.0404906005859375	0.03582400131225586	1.02975
23	0.7666666666666667	0.03389780044555664	0.01104539966583252	0.9648720092773437	0.022628599166870118	-0.000256011992692947	0.9851690063476563	0.002218499898910522	-0.00353068995475769	1.0074099731445312	-0.014473999977111816	0.01768950080871582	1.0206199951171875	0.022880100250244142	-0.0371427001953125	0.911426025390625	0.005005849838256836	-0.03268679809570312	0.9217030029296875	-0.01129740047454834	-0.026983299255371095	0.9358510131835938	-0.023646400451660155	-0.014175100326538086	0.9672969970703125	0.001324869990348816	-0.002429840087890625	0.982969970703125	0.015118800163269042	-0.002657390117645263	0.9687210083007812	0.010910900115966796	-0.0027739799022674563	0.9425469970703125	-0.025825700759887694	0.006264229774475097	0.9555479736328125	0.008456629753112793	0.014906499862670898	0.991864990234375	0.016481399536132812	0.016170700073242186	0.9766669921875	0.01681290054321289	0.019997299194335936	0.9533610229492188	-0.019847000122070312	0.028092699050903322	0.9572730102539062	0.028759199142456053	0.04895759963989258	0.9161900024414062	0.017804500579833984	0.04710639953613281	0.9319409790039063	0.007968830108642579	0.04461640167236328	0.9467919921875	-0.0055351901054382325	0.04130580139160156	0.9692789916992187	-0.040729301452636715	0.03595000076293945	1.0299100341796874
24	0.8	0.0336505012512207	0.010564900398254395	0.965093994140625	0.0223125	-0.0007242159843444821	0.9848510131835938	0.001667680025100708	-0.0034514598846435538	1.008219970703125	-0.014649299621582032	0.01721190071105957	1.0206099853515624	0.02352039909362793	-0.03703749847412109	0.9120239868164063	0.00542170000076294	-0.03261790084838867	0.9220170288085937	-0.011162300109863282	-0.027032800674438476	0.9359359741210938	-0.02405270004272461	-0.014270299911499024	0.9673380126953125	0.001286319971084594	-0.002726619958877563	0.9834310302734375	0.014862099647521972	-0.002896169900894165	0.9687630004882812	0.010750900268554688	-0.002910209894180298	0.9425980224609375	-0.026024900436401367	0.006339389801025391	0.9555999755859375	0.00810890007019043	0.014383500099182128	0.9918980102539062	0.01644379997253418	0.015776800155639648	0.9766810302734374	0.016805200576782225	0.01976539993286133	0.9534929809570313	-0.02002470016479492	0.028184200286865236	0.9575449829101562	0.029091100692749023	0.04869770050048828	0.9165759887695313	0.018045900344848632	0.04692490005493164	0.9322050170898437	0.008070699691772461	0.044463600158691406	0.9470189819335938	-0.005531479835510254	0.04119860076904297	0.9693270263671875	-0.04096250152587891	0.03576810073852539	1.029760009765625
25	0.8333333333333334	0.03335549926757812	0.010208700180053711	0.964968017578125	0.021893100738525392	-0.001144539952278137	0.984968017578125	0.001425510048866272	-0.003956439971923828	1.0076699829101563	-0.015088600158691406	0.01708329963684082	1.02075	0.02352589988708496	-0.03702489852905273	0.91252197265625	0.005275290012359619	-0.03261809921264648	0.922114990234375	-0.01150469970703125	-0.027063199996948242	0.9357589721679688	-0.02443549919128418	-0.014375399589538575	0.9670599975585937	0.00075898402929306	-0.0030836300849914552	0.9830889892578125	0.014559100151062012	-0.00320861005783081	0.9688090209960938	0.010316200256347656	-0.003034080028533935	0.9424970092773437	-0.026341400146484374	0.006277180194854736	0.9555289916992188	0.007976980209350585	0.014300700187683105	0.9921589965820312	0.016258499145507813	0.015363100051879883	0.9767349853515624	0.01658090019226074	0.01953510093688965	0.953552001953125	-0.020105199813842775	0.0281205997467041	0.9576580200195313	0.029358999252319336	0.04835029983520508	0.9168740234375	0.01822330093383789	0.046651798248291014	0.9324619750976563	0.008105560302734375	0.04422439956665039	0.9472379760742188	-0.005639910221099853	0.040987701416015626	0.9694920043945312	-0.04105860137939453	0.03561050033569336	1.0298499755859376
26	0.8666666666666667	0.03294240188598633	0.00985713005065918	0.9647769775390626	0.021601600646972655	-0.001321889996528625	0.984594970703125	0.000769524991512298	-0.003956439971923828	1.00822998046875	-0.015514300346374512	0.016792699813842772	1.0206799926757812	0.023663299560546875	-0.036866199493408205	0.9135059814453125	0.005166419982910156	-0.03252890014648437	0.9223280029296875	-0.012061100006103515	-0.027045400619506835	0.9357000122070313	-0.02523660087585449	-0.014317899703979493	0.9672349853515625	0.00025145399570465003	-0.003383100032806396	0.982635009765625	0.014125300407409667	-0.003534729957580566	0.9683109741210938	0.009787639617919923	-0.003091279983520508	0.9422919921875	-0.026758699417114257	0.0062783098220825185	0.9554539794921875	0.007892560005187989	0.013821999549865722	0.991552001953125	0.015794300079345704	0.01511110019683838	0.9764869995117188	0.01622599983215332	0.01940730094909668	0.9533489990234375	-0.020358999252319335	0.027984699249267577	0.9575369873046875	0.029320299148559572	0.048004798889160157	0.9170139770507812	0.018137399673461913	0.04637649917602539	0.9325120239257813	0.007959579944610596	0.04404729843139649	0.94722998046875	-0.005861259937286377	0.04085260009765625	0.96947998046875	-0.04140900039672851	0.0354359016418457	1.029780029296875
27	0.9	0.03265380096435547	0.009782360076904298	0.9647319946289062	0.021196599960327148	-0.001432000041007995	0.9845989990234375	0.000162150993943214	-0.003821840047836303	1.0079099731445313	-0.015577099800109863	0.016755800247192382	1.02022998046875	0.02420669937133789	-0.03672629928588867	0.9147830200195313	0.005366559982299805	-0.03245080184936523	0.9228569946289062	-0.012178099632263184	-0.027008100509643553	0.9357130126953125	-0.025499399185180665	-0.014418399810791016	0.9670490112304687	0.000138245001435279	-0.00341336989402771	0.9825859985351563	0.013761799812316894	-0.003528029918670654	0.9682479858398437	0.009459659576416016	-0.0031135900020599363	0.9421909790039062	-0.02709600067138672	0.0062430100440979	0.9553820190429687	0.007093830108642578	0.013602800369262695	0.9917000122070313	0.015489700317382813	0.01509409999847412	0.9765029907226562	0.01585420036315918	0.019305700302124022	0.9533599853515625	-0.020722400665283202	0.02796339988708496	0.957531005859375	0.02922960090637207	0.04777899932861328	0.9171190185546875	0.017941699981689454	0.046236000061035155	0.9324600219726562	0.007659619808197022	0.04395380020141602	0.9471190185546875	-0.006282090187072754	0.04085219955444336	0.969447998046875	-0.04170289993286133	0.03548509979248047	1.029719970703125
